0.11m3min_grf.mot
version=1
nRows=20
nColumns 19
inDegrees=yes
endheader
time	1_ground_force_vx	1_ground_force_vy	1_ground_force_vz	1_ground_force_px	1_ground_force_py	1_ground_force_pz	1_ground_torque_x	1_ground_torque_y	1_ground_torque_z	2_ground_force_vx	2_ground_force_vy	2_ground_force_vz	2_ground_force_px	2_ground_force_py	2_ground_force_pz	2_ground_torque_x	2_ground_torque_y	2_ground_torque_z
            0.005000	           -7.844703	          315.712147	          -14.585172	           -0.257447	            0.006099	           -0.377368	            0.009642	           -0.388039	            0.017927	            8.028161	          295.184565	           11.702080	           -0.277384	            0.005336	           -0.656814	            0.029330	            1.078435	            0.042753
            0.005500	           -6.010131	          320.396460	          -13.881787	           -0.257781	            0.006098	           -0.377171	            0.014188	           -0.756338	            0.032770	            8.724970	          297.380343	           16.355548	           -0.277723	            0.005333	           -0.656131	            0.039794	            1.356342	            0.074597
            0.006000	           -4.999952	          324.538606	          -12.903538	           -0.258846	            0.006097	           -0.377084	            0.019560	           -1.269627	            0.050480	           11.144365	          302.530533	           20.502582	           -0.278266	            0.005334	           -0.657041	            0.041759	            1.133607	            0.076825
            0.006500	           -3.717485	          331.388753	          -12.831495	           -0.258234	            0.006097	           -0.377001	            0.016636	           -1.483019	            0.057423	           14.452489	          307.695547	           21.411199	           -0.278642	            0.005337	           -0.658319	            0.034515	            0.734840	            0.051134
            0.007000	           -1.567513	          337.524297	          -14.232095	           -0.257713	            0.006097	           -0.377056	            0.005712	           -1.229957	            0.051863	           17.759442	          312.870040	           19.644914	           -0.278658	            0.005336	           -0.657932	            0.009656	            0.170116	            0.010682
            0.007500	            1.361274	          341.498376	          -16.010752	           -0.258379	            0.006099	           -0.377424	           -0.002811	           -0.705078	            0.033057	           19.046771	          319.151096	           15.396239	           -0.278381	            0.005334	           -0.657209	            0.007028	            0.117759	            0.005681
            0.008000	            4.015127	          348.535770	          -17.500451	           -0.258689	            0.006095	           -0.376543	           -0.004335	           -0.376284	            0.018894	           18.419666	          323.764313	           12.127957	           -0.278919	            0.005328	           -0.655945	            0.025073	            0.440712	            0.016509
            0.008500	            6.119091	          355.572602	          -18.897073	           -0.258217	            0.006098	           -0.377331	           -0.007889	           -0.458448	            0.024364	           16.568246	          330.389871	           11.354611	           -0.278770	            0.005328	           -0.655963	            0.049351	            0.984115	            0.033821
            0.009000	            6.852027	          362.962291	          -18.546210	           -0.258161	            0.006101	           -0.377984	           -0.017519	           -0.928011	            0.047418	           14.856237	          337.740174	           14.056512	           -0.278782	            0.005332	           -0.656893	            0.065366	            1.486022	            0.061847
            0.009500	            7.309689	          372.154326	          -18.141080	           -0.258822	            0.006098	           -0.377301	           -0.028037	           -1.427429	            0.069582	           14.463430	          343.247553	           18.487625	           -0.278576	            0.005329	           -0.655973	            0.061472	            1.458863	            0.078576
            0.010000	            7.858997	          377.201674	          -18.074946	           -0.259377	            0.006100	           -0.377708	           -0.031727	           -1.522796	            0.072970	           16.076578	          350.976976	           21.517923	           -0.278650	            0.005332	           -0.656931	            0.049093	            1.071781	            0.065709
            0.010500	            9.001752	          386.037893	          -18.727754	           -0.258425	            0.006101	           -0.377986	           -0.028971	           -1.242427	            0.060274	           17.688036	          358.898970	           22.202472	           -0.278753	            0.005334	           -0.657440	            0.027626	            0.560548	            0.034677
            0.011000	           11.104575	          394.338189	          -20.485812	           -0.258511	            0.006100	           -0.377712	           -0.020203	           -0.717420	            0.037270	           18.642796	          366.646276	           19.554749	           -0.278757	            0.005332	           -0.657088	            0.017483	            0.343835	            0.018338
            0.011500	           12.840693	          399.935185	          -22.437978	           -0.258989	            0.006099	           -0.377514	           -0.017552	           -0.546681	            0.030671	           17.819778	          373.651764	           16.576657	           -0.278548	            0.005330	           -0.656256	            0.022849	            0.479110	            0.021255
            0.012000	           13.889355	          408.234884	          -24.101707	           -0.259134	            0.006098	           -0.377385	           -0.026497	           -0.778810	            0.045980	           15.448320	          381.386056	           14.211916	           -0.278437	            0.005329	           -0.655763	            0.040833	            1.008085	            0.037565
            0.012500	           14.435617	          415.630239	          -25.080211	           -0.258688	            0.006101	           -0.377880	           -0.041636	           -1.198789	            0.072338	           12.750933	          388.923977	           14.943913	           -0.278368	            0.005329	           -0.655707	            0.050971	            1.554699	            0.059737
            0.013000	           14.618665	          423.019367	          -24.636272	           -0.259156	            0.006101	           -0.377978	           -0.052035	           -1.505745	            0.087693	           11.270097	          397.193882	           18.212138	           -0.278402	            0.005333	           -0.656869	            0.048949	            1.725119	            0.079100
            0.013500	           14.525936	          431.851415	          -24.368889	           -0.259419	            0.006099	           -0.377569	           -0.052127	           -1.549724	            0.087449	           11.337131	          405.097010	           22.604665	           -0.278018	            0.005336	           -0.657380	            0.040470	            1.446062	            0.080691
            0.014000	           14.890991	          437.981502	          -24.572798	           -0.259485	            0.006100	           -0.377692	           -0.040776	           -1.199326	            0.067288	           12.622454	          412.824245	           25.916671	           -0.278039	            0.005338	           -0.657796	            0.031554	            1.031993	            0.064787
            0.014500	           15.527049	          447.001987	          -26.186556	           -0.258690	            0.006101	           -0.378000	           -0.030326	           -0.873057	            0.051146	           13.953454	          420.561250	           26.553755	           -0.278485	            0.005336	           -0.657887	            0.020985	            0.632504	            0.039936
